<?xml version="1.0" encoding="utf-8"?>
<!-- Generator: Adobe Illustrator 22.1.0, SVG Export Plug-In . SVG Version: 6.00 Build 0)  -->
<svg version="1.1" id="Capa_1" xmlns="http://www.w3.org/2000/svg" xmlns:xlink="http://www.w3.org/1999/xlink" x="0px" y="0px"
	 viewBox="0 0 2194 2500" style="enable-background:new 0 0 2194 2500;" xml:space="preserve">
<style type="text/css">
	.st0{fill:#61DAFB;}
</style>
<g>
	<path class="st0" d="M2102.8,1204.7c0-145.3-182-283.1-461.1-368.5c64.4-284.4,35.8-510.7-90.3-583.2c-29.1-17-63.1-25-100.2-25
		v99.7c20.6,0,37.1,4,51,11.6c60.8,34.9,87.2,167.7,66.6,338.5c-4.9,42-13,86.3-22.8,131.5c-87.7-21.5-183.4-38-284-48.7
		c-60.4-82.7-123-157.9-186-223.6c145.8-135.5,282.6-209.7,375.7-209.7v-99.7c-123,0-284,87.7-446.8,239.7
		C842.2,316.1,681.2,229.3,558.2,229.3v99.7c92.6,0,229.9,73.8,375.7,208.4c-62.6,65.7-125.2,140.4-184.7,223.2
		c-101.1,10.7-196.8,27.3-284.4,49.2c-10.3-44.7-17.9-88.1-23.3-129.7c-21-170.8,4.9-303.7,65.3-339c13.4-8,30.9-11.6,51.4-11.6
		v-99.7c-37.6,0-71.6,8-101.1,25c-125.7,72.4-153.8,298.3-89,581.8C90,922.5-91.2,1059.8-91.2,1204.7c0,145.3,182,283.1,461.1,368.5
		c-64.4,284.4-35.8,510.7,90.3,583.2c29.1,17,63.1,25,100.6,25c123,0,284-87.7,446.8-239.7c162.8,151.2,323.8,237.9,446.8,237.9
		c37.6,0,71.6-8,101.1-25c125.7-72.4,153.8-298.3,89-581.8C1921.7,1487.3,2102.8,1349.6,2102.8,1204.7L2102.8,1204.7z M1520.6,906.4
		c-16.5,57.7-37.1,117.2-60.4,176.6c-18.3-35.8-37.6-71.6-58.6-107.3c-20.6-35.8-42.5-70.7-64.4-104.6
		C1400.7,880.5,1462,892.1,1520.6,906.4L1520.6,906.4z M1315.8,1382.7c-34.9,60.4-70.7,117.6-107.8,170.8
		c-66.6,5.8-134.2,8.9-202.1,8.9c-67.5,0-135.1-3.1-201.2-8.5c-37.1-53.2-73.3-110-108.2-169.9c-34-58.6-64.8-118.1-93-178
		c27.7-59.9,59-119.9,92.6-178.4c34.9-60.4,70.7-117.6,107.8-170.8c66.6-5.8,134.2-8.9,202.1-8.9c67.5,0,135.1,3.1,201.2,8.5
		c37.1,53.2,73.3,110,108.2,169.9c34,58.6,64.8,118.1,93,178C1380.2,1264.2,1349.3,1324.1,1315.8,1382.7L1315.8,1382.7z
		 M1460.2,1324.5c24.1,59.9,44.7,119.9,61.7,178c-58.6,14.3-120.3,26.4-184.2,35.8c21.9-34.4,43.8-69.8,64.4-106
		C1422.6,1396.5,1441.9,1360.3,1460.2,1324.5L1460.2,1324.5z M1006.7,1801.7c-41.6-42.9-83.2-90.8-124.3-143.1
		c40.2,1.8,81.4,3.1,123,3.1c42,0,83.6-0.9,124.3-3.1C1089.5,1710.9,1047.9,1758.8,1006.7,1801.7z M674,1538.3
		c-63.5-9.4-124.8-21-183.4-35.3c16.5-57.7,37.1-117.2,60.4-176.6c18.3,35.8,37.6,71.6,58.6,107.3
		C630.6,1469.4,652.1,1504.3,674,1538.3z M1004.5,607.7c41.6,42.9,83.2,90.8,124.3,143.1c-40.2-1.8-81.4-3.1-123-3.1
		c-42,0-83.6,0.9-124.3,3.1C921.8,698.4,963.4,650.6,1004.5,607.7z M673.6,871.1c-21.9,34.4-43.8,69.8-64.4,106
		c-20.6,35.8-39.8,71.6-58.1,107.3c-24.1-59.9-44.7-119.9-61.7-178C547.9,892.5,609.6,880.5,673.6,871.1L673.6,871.1z M268.8,1431
		C110.5,1363.4,8.1,1274.9,8.1,1204.7c0-70.2,102.4-159.2,260.7-226.3c38.5-16.5,80.5-31.3,123.9-45.2
		c25.5,87.7,59,178.9,100.6,272.3c-41.1,93-74.2,183.8-99.3,271C349.8,1462.7,307.7,1447.5,268.8,1431L268.8,1431z M509.4,2070
		c-60.8-34.9-87.2-167.7-66.6-338.5c4.9-42,13-86.3,22.8-131.5c87.7,21.5,183.4,38,284,48.7c60.4,82.7,123,157.9,186,223.6
		C789.8,2007.9,653,2082.1,560,2082.1C539.9,2081.7,522.9,2077.6,509.4,2070L509.4,2070z M1570.2,1729.3
		c21,170.8-4.9,303.7-65.3,339c-13.4,8-30.9,11.6-51.4,11.6c-92.6,0-229.9-73.8-375.7-208.4c62.6-65.7,125.2-140.4,184.7-223.2
		c101.1-10.7,196.8-27.3,284.4-49.2C1557.2,1644.3,1565.3,1687.7,1570.2,1729.3z M1742.4,1431c-38.5,16.5-80.5,31.3-123.9,45.2
		c-25.5-87.7-59-178.9-100.6-272.3c41.1-93,74.2-183.8,99.3-271c44.3,13.9,86.3,29.1,125.7,45.6c158.3,67.5,260.7,156.1,260.7,226.3
		C2003.1,1274.9,1900.7,1363.9,1742.4,1431L1742.4,1431z"/>
	<circle class="st0" cx="1005.4" cy="1204.7" r="204.4"/>
</g>
</svg>
